<!-- ~~ Generated by projen. To modify, edit .projenrc.ts and run "npx projen". -->
<svg xmlns="http://www.w3.org/2000/svg" width="810" height="200" viewBox="0 0 810 200">
    <style>
        text {
            font-family: Palatino;
            font-weight: 700;
            font-size: 90px;
            fill: #6F7174;
        }

        @media (prefers-color-scheme: dark) {
            text {
                fill: #f0f6fc;
            }
        }

        @media (prefers-color-scheme: light) {
            text {
                fill: #191919;
            }
        }
    </style>


    <g transform="translate(0 0) scale(2)">
        <svg xmlns="http://www.w3.org/2000/svg" viewBox="0 0 70 100" width="70" height="100">
          <defs>
            <radialGradient id="organicGreen6" cx="30%" cy="30%" r="80%">
              <stop offset="0%" style="stop-color:#d1fae5;stop-opacity:1" />
              <stop offset="60%" style="stop-color:#10b981;stop-opacity:0.9" />
              <stop offset="100%" style="stop-color:#064e3b;stop-opacity:0.7" />
            </radialGradient>
            <radialGradient id="organicRed6" cx="70%" cy="70%" r="80%">
              <stop offset="0%" style="stop-color:#fee2e2;stop-opacity:1" />
              <stop offset="60%" style="stop-color:#dc2626;stop-opacity:0.9" />
              <stop offset="100%" style="stop-color:#7f1d1d;stop-opacity:0.7" />
            </radialGradient>
          </defs>

          <!-- Down flowing cloud -->
          <g transform="translate(35, 73)">
            <path d="M 0,20 C -5,18 -10,12 -15,8 C -20,5 -22,0 -20,-5 C -18,-12 -15,-18 -10,-22 C -5,-25 0,-26 5,-25 C 10,-24 15,-20 18,-15 C 20,-10 22,-5 20,0 C 18,5 15,8 10,12 C 5,18 0,20 0,20 Z"
                  fill="url(#organicRed6)"/>
          </g>

          <!-- Up flowing cloud -->
          <g transform="translate(35, 27)">
            <path d="M 0,-20 C -5,-18 -10,-12 -15,-8 C -20,-5 -22,0 -20,5 C -18,12 -15,18 -10,22 C -5,25 0,26 5,25 C 10,24 15,20 18,15 C 20,10 22,5 20,0 C 18,-5 15,-8 10,-12 C 5,-18 0,-20 0,-20 Z"
                  fill="url(#organicGreen6)"/>
          </g>
        </svg>
    </g>

    <text x="125" y="110"><tspan dy="0.5ex">CDK up / down</tspan></text>
</svg>